<svg width="1366" height="766" viewBox="0 0 1366 766" fill="none" xmlns="http://www.w3.org/2000/svg">
<g id="Image " clip-path="url(#clip0_515:526)">
<rect width="1366" height="766" fill="url(#paint0_radial_515:526)"/>
<path id="vector" opacity="0.21" d="M1229.42 727.975C1229.41 726.459 1229.01 724.915 1228.18 723.485C1228.09 723.334 1227.99 723.195 1227.89 723.051L1318.35 654.244L1546.39 742.625C1546.27 743.055 1546.19 743.497 1546.13 743.943L1229.42 727.975ZM919.132 597.002C919.013 595.733 918.626 594.462 917.931 593.27C917.478 592.494 916.922 591.808 916.299 591.208L1039.48 446.326L1185.01 598.045C1183.61 599.544 1182.8 601.454 1182.67 603.451L919.132 597.002ZM902.85 470.762C903.97 470.623 905.079 470.295 906.121 469.745C910.664 467.345 912.244 461.792 909.648 457.343C908.989 456.212 908.122 455.264 907.124 454.515L956.348 370.555C956.631 370.675 956.919 370.78 957.212 370.873L910.742 588.554C910.504 588.523 910.264 588.501 910.024 588.487L902.85 470.762ZM613.217 588.007C611.629 585.403 608.936 583.793 606.062 583.437L607.526 442.226C608.865 442.151 610.202 441.809 611.445 441.152C614.211 439.691 615.869 437.061 616.165 434.224L891.963 461.176C891.917 462.545 892.182 463.945 892.802 465.273L613.217 588.007ZM563.513 717.731L585.618 575.125L597.694 586.631C595.344 589.42 594.885 593.458 596.867 596.856C597.949 598.71 599.588 600.072 601.458 600.865L563.513 717.731ZM359.628 685.496C359.814 683.678 359.444 681.777 358.432 680.042C357.872 679.082 357.157 678.26 356.344 677.573L407.787 608.143L553.052 723.207C552.534 723.96 552.14 724.78 551.879 725.642L359.628 685.496ZM224.524 652.156C224.802 650.23 224.455 648.189 223.375 646.338C222.683 645.152 221.761 644.172 220.7 643.406L296.317 530.227C298.199 531.201 300.374 531.559 302.484 531.202L346.682 675.822C346.284 675.968 345.89 676.131 345.507 676.332C343.401 677.446 341.943 679.239 341.231 681.282L224.524 652.156ZM-91.3164 834.386C-92.2121 834.032 -93.1571 833.812 -94.1179 833.73L-86.3947 691.871L-26.3061 698.94C-26.2874 700.444 -25.8881 701.973 -25.061 703.391C-24.2468 704.787 -23.119 705.907 -21.8142 706.715L-91.3164 834.386ZM-370.741 786.767C-369.707 785.868 -368.919 784.77 -368.405 783.561L-279.938 803.44L-281.906 888.731C-283.124 888.846 -284.334 889.191 -285.466 889.789C-285.944 890.042 -286.382 890.337 -286.794 890.655L-370.741 786.767ZM-388.754 649.518C-387.751 649.356 -386.762 649.043 -385.826 648.549C-383.711 647.431 -382.249 645.627 -381.541 643.574L-313.969 660.225L-372.861 771.86C-374.065 771.239 -375.387 770.874 -376.737 770.781L-388.754 649.518ZM-226.116 490.749C-225.761 491.05 -225.391 491.331 -224.999 491.576L-313.159 658.689L-381.146 641.937C-380.876 640.018 -381.225 637.989 -382.299 636.146C-382.556 635.706 -382.851 635.302 -383.167 634.918L-226.116 490.749ZM56.5279 505.411C56.4588 505.78 56.4171 506.155 56.3961 506.532L-67.9366 508.251C-68.0919 507.103 -68.4712 505.958 -69.1014 504.879C-70.8359 501.905 -73.9973 500.187 -77.2595 500.084L-79.6113 473.476C-78.576 473.321 -77.5532 473.005 -76.5871 472.495C-74.6005 471.444 -73.1807 469.792 -72.4292 467.892L56.5279 505.411ZM168.746 211.207C170.56 211.653 172.496 211.588 174.312 210.943L244.461 347.658C240.161 350.145 238.706 355.534 241.241 359.878C241.415 360.177 241.606 360.461 241.809 360.735L72.3541 500.747C71.5498 499.994 70.6248 499.398 69.6335 498.957L168.746 211.207ZM559.072 226.139L345.815 314.626L179.26 206.777C179.775 205.835 180.109 204.809 180.253 203.749L559.072 226.139ZM762.91 6.43066L846.67 68.0615L730.451 175.697C729.458 174.864 728.316 174.242 727.098 173.856L762.91 6.43066ZM764.312 5.36353L959.135 -40.189C959.316 -39.7159 959.525 -39.2477 959.791 -38.7932C960.054 -38.3408 960.358 -37.9261 960.684 -37.5327L847.932 66.8913L764.312 5.36353ZM991.809 -179.416C992.996 -178.282 994.443 -177.477 995.997 -177.05L974.332 -49.8064C971.376 -52.4313 966.951 -53.1157 963.318 -51.1953C959.769 -49.3206 958.041 -45.5244 958.685 -41.8312L765.791 3.27002L991.809 -179.416ZM1207.24 -43.1256C1207.39 -41.9448 1207.78 -40.7661 1208.42 -39.6565C1209.5 -37.812 1211.13 -36.4554 1212.99 -35.6606L1165.14 110.093L975.969 -37.9888C976.846 -39.2822 977.362 -40.7778 977.467 -42.3271L1207.24 -43.1256ZM1176.78 115.908C1175.96 116.344 1175.23 116.888 1174.61 117.508L1166.61 111.243L1212.55 -28.6974L1182.49 114.896C1180.57 114.653 1178.58 114.957 1176.78 115.908ZM1214.75 324.776C1217.5 326.29 1220.92 326.476 1223.85 324.993L1289.49 412.324L1214.75 324.776ZM1315.59 536.977C1314.7 537.447 1313.93 538.043 1313.28 538.724L1262.8 500.931L1302.17 442.093C1303.64 442.849 1305.3 443.225 1306.96 443.181L1318.31 536.038C1317.38 536.208 1316.46 536.517 1315.59 536.977ZM1477.62 533.09C1479.9 535.398 1483.23 536.439 1486.4 535.845L1551.84 736.751C1551.5 736.884 1551.16 737.031 1550.83 737.207C1549.11 738.116 1547.81 739.477 1547.01 741.059L1319.92 653.048L1477.62 533.09ZM1201.2 607.039C1201.6 605.749 1201.69 604.373 1201.46 603.007L1475.61 530.073C1475.77 530.455 1475.94 530.833 1476.16 531.203C1476.27 531.394 1476.39 531.572 1476.52 531.753L1318.02 652.314L1201.2 607.039ZM1091.5 385.154C1093.83 386.698 1096.77 387.214 1099.5 386.464L1187.87 595.982C1187.72 596.05 1187.57 596.112 1187.42 596.189C1187.01 596.404 1186.64 596.652 1186.28 596.915L1040.59 445.024L1091.5 385.154ZM967.081 368.384C968.21 367.165 968.958 365.678 969.268 364.091L1087.26 377.434C1087.26 378.975 1087.65 380.547 1088.5 382.002C1088.95 382.779 1089.51 383.465 1090.13 384.064L1039.38 443.758L967.081 368.384ZM904.017 452.954L914.505 366.51L950.874 364.534C951.079 365.216 951.358 365.888 951.736 366.537C952.51 367.865 953.574 368.938 954.798 369.735L905.635 453.592C905.115 453.331 904.572 453.119 904.017 452.954ZM615.82 430.704L824.98 373.334C825.132 373.693 825.301 374.049 825.503 374.396C828.099 378.845 833.885 380.506 838.428 378.105C838.493 378.071 838.551 378.03 838.614 377.994L895.745 454.24C893.883 455.541 892.66 457.428 892.182 459.503L616.177 432.531C616.123 431.919 616.005 431.307 615.82 430.704ZM502.99 494.048C505.082 491.565 505.666 488.094 504.37 484.963L598.479 437.362C598.494 437.389 598.505 437.416 598.52 437.443C599.862 439.742 602.057 441.288 604.491 441.922L584.389 571.609L502.99 494.048ZM559.406 719.348L498.847 496.829C499.337 496.667 499.821 496.473 500.29 496.225C500.83 495.94 501.326 495.607 501.78 495.239L584.072 573.651L561.499 719.283C560.803 719.228 560.103 719.252 559.406 719.348ZM490.884 495.991C492.768 497.076 494.986 497.522 497.155 497.222L557.716 719.742C557.226 719.905 556.742 720.098 556.273 720.346C555.464 720.774 554.753 721.305 554.138 721.909L408.795 606.783L490.884 495.991ZM308.556 527.384C309.741 525.66 310.276 523.57 310.056 521.476L487.047 491.902C487.148 492.108 487.247 492.314 487.365 492.516C487.925 493.476 488.64 494.298 489.453 494.986L407.424 605.696L308.556 527.384ZM216.568 641.676L231.098 518.609L291.182 522.433C291.254 523.824 291.647 525.228 292.41 526.536C293.048 527.63 293.881 528.553 294.839 529.291L219.195 642.51C218.362 642.112 217.477 641.831 216.568 641.676ZM-8.60947 694.698C-9.5134 693.149 -10.809 691.948 -12.2997 691.128L40.8607 567.555L206.1 647.796C205.678 649.118 205.572 650.536 205.809 651.942L-7.80817 696.487C-8.00748 695.879 -8.27124 695.279 -8.60947 694.698ZM-86.3027 690.185L-76.9482 518.373C-76.42 518.366 -75.8913 518.318 -75.3666 518.223L-20.4237 690.501C-20.8 690.642 -21.1723 690.798 -21.5345 690.99C-24.0851 692.337 -25.7001 694.678 -26.1684 697.259L-86.3027 690.185ZM-99.4177 834.789C-100.372 835.293 -101.187 835.943 -101.868 836.686L-268.616 674.671C-267.618 673.511 -266.952 672.132 -266.658 670.667L-88.1369 691.667L-95.8718 833.734C-97.0852 833.848 -98.2899 834.193 -99.4177 834.789ZM-275.291 677.859C-273.913 677.799 -272.535 677.456 -271.256 676.78C-270.744 676.509 -270.275 676.194 -269.84 675.849L-102.898 838.052C-103.495 839.029 -103.894 840.105 -104.075 841.228L-278.158 802.113L-275.291 677.859ZM-368.945 775.558C-369.172 775.168 -369.432 774.808 -369.705 774.462L-281.389 676.083C-280.093 676.99 -278.596 677.569 -277.04 677.78L-279.899 801.722L-367.898 781.951C-367.452 779.86 -367.756 777.594 -368.945 775.558ZM-285.334 667.28C-285.605 669.199 -285.256 671.228 -284.181 673.071C-283.771 673.774 -283.274 674.399 -282.722 674.957L-370.909 773.192C-371.062 773.058 -371.215 772.924 -371.376 772.8L-312.215 660.657L-285.334 667.28ZM-274.166 659.787C-276.311 659.337 -278.608 659.587 -280.655 660.669C-282.769 661.786 -284.231 663.589 -284.939 665.644L-311.405 659.122L-223.468 492.43L-274.166 659.787ZM-89.5121 468.785C-89.1492 469.407 -88.719 469.968 -88.2436 470.478L-117.556 501.238L-210.527 484.755C-210.498 484.328 -210.506 483.897 -210.54 483.465L-90.4307 466.581C-90.2244 467.332 -89.9277 468.073 -89.5121 468.785ZM-82.0258 501.17C-84.3441 502.395 -85.8853 504.443 -86.4991 506.745L-115.498 501.604L-86.9469 471.641C-85.3254 472.845 -83.3599 473.517 -81.354 473.58L-79.0022 500.188C-80.0374 500.344 -81.0603 500.66 -82.0258 501.17ZM57.6235 511.594C58.5562 513.192 59.9044 514.424 61.4549 515.243L39.9486 565.239L-68.4431 512.603C-68.1154 511.753 -67.9255 510.855 -67.8733 509.94L56.4588 508.22C56.6147 509.369 56.9934 510.514 57.6235 511.594ZM247.534 364.435L229.543 516.82L75.3032 507.006C75.2317 505.614 74.839 504.209 74.0752 502.9C73.9005 502.601 73.7094 502.317 73.5077 502.044L242.962 362.031C244.251 363.237 245.842 364.053 247.534 364.435ZM431.328 372.008C430.866 372.855 430.542 373.767 430.378 374.714L258.935 355.732C258.935 354.735 258.764 353.728 258.413 352.747L345.668 316.542L431.328 372.008ZM445.077 369.026C442.175 367.037 438.281 366.659 435.021 368.382C433.926 368.96 433.008 369.725 432.274 370.611L347.561 315.757L563.289 226.244C563.641 226.739 564.037 227.19 564.466 227.6L445.077 369.026ZM716.118 186.884C716.994 188.386 718.239 189.561 719.671 190.378L677.183 280.358L579.68 225.097C580.455 223.435 580.699 221.553 580.342 219.702L715.522 185.638C715.69 186.06 715.881 186.478 716.118 186.884ZM885.322 96.5026L732.097 177.468C731.964 177.282 731.821 177.106 731.676 176.931L848.094 69.1101L885.322 96.5026ZM962.848 -35.5986L898.668 83.877C896.078 82.8162 893.059 82.8486 890.449 84.2285C886.433 86.3501 884.739 90.9341 886.191 95.0425L849.358 67.9405L961.909 -36.2983C962.209 -36.0467 962.521 -35.8115 962.848 -35.5986ZM1130.36 216.009C1128.4 215.552 1126.29 215.692 1124.35 216.524L973.608 -35.0995L973.71 -35.7021C974.137 -36.0015 974.532 -36.3275 974.891 -36.6838L1164.58 111.802L1130.36 216.009ZM1173.26 128.309C1174.06 129.692 1175.18 130.804 1176.47 131.61L1132.47 215.227L1166.05 112.953L1173.53 118.813C1171.68 121.548 1171.44 125.197 1173.26 128.309ZM1218.13 307.759L1199.84 213.758L1282.53 199.871C1282.74 200.539 1283.01 201.197 1283.38 201.832C1284.09 203.048 1285.05 204.048 1286.14 204.822L1223.26 308.652C1221.67 307.909 1219.89 307.588 1218.13 307.759ZM1297.65 430.487L1106.08 379.284C1106.4 377.312 1106.06 375.211 1104.95 373.309C1103.69 371.15 1101.68 369.655 1099.42 368.955L1127.39 233.968C1129.29 234.207 1131.28 233.9 1133.07 232.954C1133.31 232.825 1133.55 232.682 1133.77 232.536L1299.97 427.226C1298.94 428.143 1298.15 429.259 1297.65 430.487ZM968.188 357.844C968.023 357.563 967.846 357.293 967.658 357.034L1020.18 314.218L1088.97 372.228C1088.2 373.284 1087.67 374.487 1087.42 375.755L969.429 362.412C969.43 360.87 969.036 359.298 968.188 357.844ZM914.713 364.804L929.165 245.691C930.034 245.732 930.91 245.658 931.771 245.461L956.543 353.587C956.109 353.74 955.679 353.915 955.263 354.135C951.92 355.901 950.19 359.374 950.538 362.857L914.713 364.804ZM496.304 479.061L518.375 403.821L597.637 430.385C597.125 432.114 597.145 433.998 597.766 435.796L503.568 483.442C501.914 480.897 499.189 479.342 496.304 479.061ZM431.494 380.784C431.887 381.458 432.361 382.059 432.885 382.6L386.815 430.788L258.143 359.383C258.431 358.751 258.647 358.091 258.778 357.41L430.248 376.396C430.276 377.879 430.679 379.386 431.494 380.784ZM567.641 229.63L517.183 401.647L448.926 378.771C449.465 376.602 449.189 374.221 447.946 372.091C447.519 371.36 447 370.712 446.421 370.138L565.833 228.685C566.405 229.06 567.008 229.38 567.641 229.63ZM676.461 281.887L609.204 424.318C608.11 424.009 606.964 423.892 605.821 423.973L573.409 230.075C574.205 229.894 574.989 229.619 575.737 229.224C577.011 228.551 578.042 227.625 578.823 226.55L676.461 281.887ZM728.262 190.957L828.293 362.433C827.351 363.047 826.568 363.81 825.944 364.668L678.714 281.225L721.266 191.11C723.494 191.902 725.993 191.902 728.262 190.957ZM1122.84 217.338C1121.94 217.939 1121.2 218.68 1120.59 219.506L946.254 120.374L967.488 -34.0211C968.952 -33.9059 970.448 -34.1119 971.857 -34.6843L1122.84 217.338ZM841.955 365.703C841.374 364.708 840.628 363.861 839.778 363.159L925.248 244.688C925.942 245.029 926.676 245.281 927.428 245.453L912.935 364.9L843.053 368.696C842.87 367.676 842.516 366.664 841.955 365.703ZM825.087 366.121C824.286 367.841 824.046 369.796 824.459 371.708L744.012 393.775L615.162 429.116C615.098 428.994 615.042 428.87 614.972 428.75C613.981 427.05 612.523 425.762 610.847 424.947L677.992 282.754L825.087 366.121ZM896.414 101.379L926.418 227.798C925.83 227.973 925.25 228.206 924.691 228.501C922.461 229.68 920.95 231.62 920.291 233.814L867.839 219.854L894.044 101.336C894.827 101.444 895.621 101.463 896.414 101.379ZM929.761 227.431C929.236 227.398 928.71 227.401 928.183 227.454L909.979 150.902L898.123 101.042C898.71 100.866 899.288 100.634 899.847 100.339C901.116 99.6685 902.144 98.7458 902.925 97.6754L944.366 121.239L929.761 227.431ZM1119.74 220.957C1119.2 222.097 1118.92 223.338 1118.91 224.605L938.707 235.163C938.521 234.157 938.169 233.158 937.616 232.211C936.247 229.864 933.988 228.303 931.494 227.695L946.006 122.173L1119.74 220.957ZM938.856 236.85L1119.05 226.291C1119.24 227.298 1119.59 228.296 1120.15 229.245C1120.31 229.525 1120.49 229.795 1120.67 230.053L1020.17 311.992L937.141 241.985C938.243 240.49 938.839 238.696 938.856 236.85ZM921.165 240.904C921.75 241.907 922.505 242.761 923.364 243.466L838.31 362.158C837.746 361.844 837.155 361.586 836.543 361.388L867.474 221.5L919.966 235.469C919.785 237.281 920.156 239.175 921.165 240.904ZM964.397 -34.7772C964.84 -34.5903 965.295 -34.4348 965.759 -34.3137L944.613 119.44L903.784 96.2244C904.976 93.6775 904.933 90.6103 903.374 87.937C902.581 86.5784 901.489 85.4831 900.226 84.6813L920.128 47.6338L964.397 -34.7772ZM729.78 190.155C731.447 189.067 732.633 187.522 733.271 185.784L865.777 221.047L834.832 360.997C833.161 360.767 831.428 360.957 829.811 361.631L729.78 190.155ZM518.849 402.205L569.325 230.124C570.099 230.28 570.89 230.337 571.682 230.304L601.265 407.283L604.103 424.256C603.4 424.437 602.71 424.69 602.047 425.041C600.353 425.936 599.073 427.27 598.266 428.821L518.849 402.205ZM490.891 480.114C490.199 480.48 489.585 480.926 489.035 481.423L444.402 384.5C444.408 384.498 444.414 384.495 444.419 384.493C446.24 383.531 447.574 382.059 448.365 380.358L516.71 403.263L494.477 479.054C493.25 479.166 492.031 479.511 490.891 480.114ZM306.308 514.995C304.166 513.4 301.419 512.728 298.776 513.178L262.687 395.639L253.003 364.094C253.396 363.949 253.787 363.788 254.166 363.587C255.467 362.9 256.516 361.948 257.302 360.843L385.61 432.048L306.308 514.995ZM442.807 385.156L453.021 407.335L487.781 482.821C487.086 483.789 486.6 484.875 486.342 486.02L388.389 431.662L434.205 383.739C436.662 385.496 439.871 386.069 442.807 385.156ZM308.861 517.843C308.501 517.225 308.075 516.668 307.603 516.161L387.184 432.921L486.127 487.829C486.114 488.645 486.217 489.469 486.438 490.283L309.714 519.811C309.509 519.141 309.233 518.48 308.861 517.843ZM958.229 353.161L933.429 244.92C933.651 244.824 933.873 244.727 934.089 244.612C934.808 244.233 935.444 243.767 936.01 243.246L1018.83 313.081L966.509 355.734C964.307 353.646 961.211 352.695 958.229 353.161ZM1092.03 369.6C1091.31 369.98 1090.67 370.446 1090.11 370.966L1021.52 313.129L1121.82 231.354C1122.93 232.398 1124.25 233.156 1125.67 233.598L1097.71 368.586C1095.8 368.347 1093.82 368.654 1092.03 369.6ZM1216.42 308.083C1215.8 308.261 1215.19 308.501 1214.6 308.811C1214.03 309.113 1213.51 309.466 1213.03 309.86L1135.57 231.008C1137.25 229.141 1138.05 226.663 1137.79 224.177L1198.12 214.045L1216.42 308.083ZM1182.37 133.088L1197.8 212.378L1137.45 222.513C1137.24 221.845 1136.97 221.187 1136.6 220.551C1135.79 219.169 1134.68 218.057 1133.39 217.251L1178.04 132.401C1179.41 132.95 1180.89 133.187 1182.37 133.088ZM1282.19 198.207L1199.51 212.09L1184.09 132.813C1184.81 132.631 1185.51 132.375 1186.18 132.018C1187.24 131.462 1188.12 130.731 1188.84 129.89L1283.28 192.943C1282.38 194.532 1281.99 196.367 1282.19 198.207ZM887.394 97.3531C888.631 99.0898 890.387 100.314 892.334 100.945L866.141 219.403L733.699 184.156C733.975 182.448 733.753 180.643 732.964 178.954L887.394 97.3531ZM231.295 516.931L249.271 364.667C249.956 364.697 250.644 364.659 251.328 364.542L297.101 513.627C296.706 513.771 296.316 513.933 295.937 514.134C293.274 515.541 291.64 518.032 291.257 520.747L231.295 516.931ZM210.45 642.628C209.742 643.002 209.115 643.46 208.556 643.971L73.2052 513.175C74.3055 511.887 74.996 510.332 75.2276 508.689L229.345 518.497L214.82 641.534C213.331 641.548 211.833 641.898 210.45 642.628ZM41.5272 566.006L63.0728 515.921C65.4862 516.692 68.1845 516.551 70.5486 515.302C71.0686 515.028 71.5445 514.707 71.9848 514.356L207.416 645.231C207.175 645.556 206.956 645.893 206.763 646.245L41.5272 566.006ZM-18.7518 690.042L-73.6978 517.756C-73.3361 517.618 -72.9767 517.466 -72.6273 517.282C-71.16 516.506 -70.0076 515.399 -69.1999 514.109L39.2821 566.788L-13.9028 690.423C-15.451 689.9 -17.1205 689.754 -18.7518 690.042ZM-267.729 664.378C-267.882 664.117 -268.047 663.867 -268.221 663.626L-83.9216 515.634C-82.4754 517.025 -80.6377 517.92 -78.6945 518.24L-88.0448 689.98L-266.489 668.989C-266.48 667.434 -266.873 665.846 -267.729 664.378ZM-85.5524 513.572C-85.4 513.833 -85.2347 514.083 -85.0612 514.325L-266.319 659.874L-116.893 503.067L-86.7776 508.406C-86.8966 510.136 -86.5108 511.929 -85.5524 513.572ZM-215.278 491.99C-212.96 490.766 -211.419 488.718 -210.805 486.417L-118.951 502.702L-270.295 661.522C-270.972 661.02 -271.709 660.609 -272.485 660.296L-221.768 492.872C-219.622 493.323 -217.324 493.072 -215.278 491.99ZM897.243 453.392L840.027 377.032C842.047 375.346 843.158 372.912 843.193 370.383L912.728 366.607L902.293 452.603C900.603 452.411 898.859 452.659 897.243 453.392ZM1196.8 596.406C1194.61 595.157 1191.98 594.764 1189.49 595.4L1101.12 385.854C1101.22 385.805 1101.32 385.764 1101.43 385.711C1102.32 385.241 1103.09 384.646 1103.74 383.965L1260.45 501.288L1196.8 596.406ZM1312.22 540.047C1310.69 542.415 1310.37 545.427 1311.49 548.182L1200.34 599.896C1199.78 598.926 1199.05 598.099 1198.23 597.408L1261.85 502.338L1312.22 540.047ZM1312.28 549.707C1314.96 553.903 1320.56 555.427 1324.99 553.088C1328.18 551.402 1329.9 548.16 1329.75 544.838L1473.21 528.947L1201.59 601.212L1312.28 549.707ZM1298.23 438.385C1298.88 439.489 1299.72 440.42 1300.69 441.161L1261.39 499.88L1104.79 382.64C1105.15 382.095 1105.43 381.515 1105.65 380.912L1297.16 432.099C1296.75 434.16 1297.06 436.384 1298.23 438.385ZM1210.34 319.602L1144.81 242.847L1211.83 311.066C1209.9 313.418 1209.3 316.631 1210.34 319.602ZM175.876 210.222C176.833 209.667 177.652 208.975 178.314 208.176L343.923 315.411L257.695 351.19C257.695 351.188 257.695 351.187 257.695 351.185C255.333 347.136 250.331 345.408 246.026 346.937L175.878 210.222H175.876ZM-271.779 895.164C-271.973 894.598 -272.225 894.04 -272.541 893.498C-274.179 890.69 -277.089 888.996 -280.155 888.73L-278.197 803.83L-104.184 842.928C-104.155 843.796 -104 844.669 -103.707 845.523L-204.394 875.262L-271.779 895.164ZM348.357 675.376L304.16 530.756C304.558 530.611 304.952 530.447 305.335 530.245C306.145 529.817 306.856 529.285 307.47 528.681L406.416 607.057L354.914 676.567C352.946 675.435 350.616 674.994 348.357 675.376ZM600.394 584.454C599.854 584.739 599.359 585.072 598.904 585.44L585.935 573.082L605.745 445.282L604.313 583.38C602.974 583.454 601.638 583.796 600.394 584.454ZM912.456 588.934L958.925 371.252C960.848 371.504 962.853 371.201 964.661 370.246C965.071 370.029 965.448 369.779 965.809 369.514L1038.27 445.06L914.936 590.118C914.166 589.608 913.33 589.21 912.456 588.934ZM1218.33 718.786L1195.15 612.983C1195.72 612.81 1196.28 612.586 1196.82 612.3C1198.49 611.42 1199.75 610.113 1200.56 608.594L1316.45 653.51L1226.81 721.697C1224.62 719.418 1221.43 718.341 1218.33 718.786ZM1560.22 753.318C1564.77 750.917 1566.35 745.365 1563.75 740.916C1561.65 737.309 1557.44 735.535 1553.51 736.273L1488.07 535.367C1488.41 535.235 1488.75 535.087 1489.08 534.912C1493.62 532.511 1495.2 526.958 1492.61 522.51C1490.01 518.06 1484.23 516.4 1479.68 518.8C1476.49 520.487 1474.77 523.729 1474.92 527.051L1329.51 543.158C1329.31 542.315 1328.98 541.483 1328.52 540.686C1326.73 537.618 1323.42 535.878 1320.05 535.879L1308.69 442.979C1309.53 442.801 1310.37 442.513 1311.16 442.094C1315.7 439.694 1317.28 434.141 1314.68 429.692C1312.11 425.276 1306.39 423.612 1301.86 425.935L1225.3 324.08C1228.82 321.385 1229.86 316.512 1227.53 312.52C1226.82 311.304 1225.87 310.305 1224.77 309.532L1287.66 205.701C1290.34 206.951 1293.55 206.998 1296.31 205.541C1300.85 203.141 1302.43 197.588 1299.83 193.139C1297.24 188.69 1291.45 187.029 1286.91 189.43C1285.86 189.986 1284.97 190.717 1284.25 191.559L1189.81 128.506C1191.31 125.852 1191.39 122.504 1189.71 119.616C1188.45 117.464 1186.45 115.971 1184.2 115.268L1215.65 -34.9359C1217.56 -34.6927 1219.55 -34.998 1221.35 -35.9474C1225.89 -38.3483 1227.47 -43.9008 1224.88 -48.35C1222.28 -52.7987 1216.49 -54.4595 1211.95 -52.0585C1209.08 -50.5433 1207.4 -47.7723 1207.2 -44.8156L977.424 -44.017C977.276 -45.1978 976.89 -46.3765 976.242 -47.4862C976.113 -47.7081 975.97 -47.9173 975.826 -48.1249L997.722 -176.733C999.529 -176.567 1001.39 -176.896 1003.08 -177.789C1007.63 -180.19 1009.2 -185.742 1006.61 -190.191C1004.01 -194.64 998.227 -196.301 993.685 -193.9C989.142 -191.5 987.563 -185.947 990.158 -181.498C990.315 -181.228 990.486 -180.97 990.666 -180.72L762.286 3.87317L761.746 3.47662L761.532 4.48273L758.866 6.63727L761.187 6.09406L725.384 173.476C723.46 173.224 721.454 173.526 719.644 174.482C716.046 176.384 714.317 180.262 715.04 184.004L579.859 218.067C579.691 217.646 579.501 217.228 579.264 216.822C576.669 212.373 570.882 210.713 566.339 213.113C562.088 215.359 560.435 220.364 562.364 224.643L180.32 202.062C180.241 200.685 179.849 199.297 179.094 198.002C176.499 193.554 170.712 191.893 166.169 194.293C161.626 196.693 160.048 202.247 162.643 206.695C163.696 208.5 165.278 209.837 167.086 210.639L67.9723 498.389C65.733 497.838 63.3032 498.053 61.1501 499.191C59.1635 500.241 57.7437 501.894 56.9916 503.793L-71.965 466.274C-71.5845 464.243 -71.9127 462.06 -73.0605 460.093C-75.6562 455.643 -81.4431 453.983 -85.9856 456.383C-89.2654 458.116 -90.9888 461.492 -90.7238 464.909L-210.833 481.793C-211.039 481.042 -211.336 480.3 -211.751 479.588C-214.347 475.14 -220.133 473.479 -224.676 475.879C-229.219 478.28 -230.798 483.833 -228.203 488.281C-227.946 488.722 -227.65 489.126 -227.336 489.51L-384.387 633.678C-387.34 631.179 -391.661 630.555 -395.224 632.438C-399.767 634.838 -401.346 640.391 -398.751 644.839C-396.999 647.843 -393.791 649.569 -390.495 649.639L-378.487 770.816C-379.644 770.946 -380.792 771.279 -381.87 771.848C-386.413 774.249 -387.991 779.801 -385.396 784.251C-382.8 788.7 -377.014 790.36 -372.471 787.96C-372.353 787.897 -372.247 787.825 -372.133 787.759L-288.041 891.825C-290.496 894.618 -291.009 898.735 -288.993 902.191C-286.397 906.64 -280.61 908.301 -276.067 905.9C-272.613 904.075 -270.878 900.427 -271.384 896.827L-102.995 847.092C-102.977 847.125 -102.963 847.159 -102.944 847.191C-100.349 851.64 -94.5623 853.301 -90.0193 850.9C-85.4768 848.5 -83.8975 842.947 -86.4926 838.498C-87.308 837.1 -88.4394 835.979 -89.7472 835.171L-20.2489 707.499C-17.6826 708.515 -14.7101 708.461 -12.1361 707.101C-8.71976 705.295 -6.98099 701.707 -7.43179 698.146L206.25 653.588C206.432 654.077 206.649 654.561 206.923 655.03C209.519 659.479 215.305 661.14 219.849 658.74C221.954 657.627 223.412 655.835 224.124 653.792L340.832 682.917C340.554 684.844 340.901 686.884 341.981 688.735C344.576 693.184 350.363 694.845 354.906 692.444C357.13 691.269 358.638 689.335 359.3 687.148L551.55 727.294C551.365 729.112 551.734 731.013 552.747 732.748C555.342 737.196 561.129 738.857 565.671 736.457C570.214 734.057 571.793 728.504 569.198 724.055C568.116 722.201 566.477 720.839 564.608 720.046L603.128 601.405C605.324 601.908 607.69 601.676 609.792 600.565C613.874 598.408 615.552 593.708 613.97 589.549L893.575 466.807L893.199 466.038C894.889 468.935 897.933 470.638 901.104 470.818L908.277 588.544C907.157 588.683 906.048 589.01 905.006 589.561C900.463 591.961 898.884 597.514 901.479 601.963C904.074 606.412 909.861 608.072 914.404 605.672C917.186 604.202 918.849 601.549 919.131 598.692L1182.72 605.142C1182.87 606.316 1183.25 607.488 1183.89 608.592C1185.88 611.989 1189.72 613.753 1193.45 613.331L1216.64 719.189C1216.17 719.349 1215.7 719.537 1215.25 719.776C1210.71 722.176 1209.13 727.729 1211.72 732.178C1214.32 736.627 1220.11 738.288 1224.65 735.887C1227.19 734.547 1228.8 732.223 1229.27 729.658L1546.08 745.631C1546.17 746.981 1546.56 748.34 1547.3 749.609C1549.89 754.058 1555.68 755.719 1560.22 753.318Z" fill="white" fill-opacity="0.3"/>
<path id="onda" d="M732.066 708.761C482.418 643.995 140.002 701.014 0 728V766H1366V708.761C1258.71 735.746 981.714 773.527 732.066 708.761Z" fill="white"/>
</g>
<defs>
<radialGradient id="paint0_radial_515:526" cx="0" cy="0" r="1" gradientUnits="userSpaceOnUse" gradientTransform="translate(38 67.5) rotate(25.7873) scale(1383.81 2467.73)">
<stop stop-color="#313131"/>
<stop offset="0.293568" stop-color="#3B312F"/>
<stop offset="1" stop-color="#953223" stop-opacity="0.81"/>
</radialGradient>
<clipPath id="clip0_515:526">
<rect width="1366" height="766" fill="white"/>
</clipPath>
</defs>
</svg>
